<mxfile host="app.diagrams.net" agent="Mozilla/5.0 (Windows NT 10.0; Win64; x64) AppleWebKit/537.36 (KHTML, like Gecko) Chrome/131.0.0.0 Safari/537.36" version="25.0.3">
  <diagram name="PÃ¡gina-1" id="q78ti-cyeS7mAO9AlYpq">
    <mxGraphModel dx="1647" dy="890" grid="1" gridSize="10" guides="1" tooltips="1" connect="1" arrows="1" fold="1" page="1" pageScale="1" pageWidth="827" pageHeight="1169" math="0" shadow="0">
      <root>
        <mxCell id="0" />
        <mxCell id="1" parent="0" />
        <mxCell id="hmxcP7MvceyvJAKSfmU0-37" style="edgeStyle=orthogonalEdgeStyle;rounded=0;orthogonalLoop=1;jettySize=auto;html=1;entryX=1;entryY=0.5;entryDx=0;entryDy=0;" edge="1" parent="1" source="hmxcP7MvceyvJAKSfmU0-5" target="hmxcP7MvceyvJAKSfmU0-14">
          <mxGeometry relative="1" as="geometry" />
        </mxCell>
        <mxCell id="hmxcP7MvceyvJAKSfmU0-38" style="edgeStyle=orthogonalEdgeStyle;rounded=0;orthogonalLoop=1;jettySize=auto;html=1;entryX=1;entryY=0.5;entryDx=0;entryDy=0;" edge="1" parent="1" source="hmxcP7MvceyvJAKSfmU0-5" target="hmxcP7MvceyvJAKSfmU0-28">
          <mxGeometry relative="1" as="geometry" />
        </mxCell>
        <mxCell id="hmxcP7MvceyvJAKSfmU0-39" style="edgeStyle=orthogonalEdgeStyle;rounded=0;orthogonalLoop=1;jettySize=auto;html=1;entryX=1;entryY=0.5;entryDx=0;entryDy=0;" edge="1" parent="1" source="hmxcP7MvceyvJAKSfmU0-5" target="hmxcP7MvceyvJAKSfmU0-29">
          <mxGeometry relative="1" as="geometry" />
        </mxCell>
        <mxCell id="hmxcP7MvceyvJAKSfmU0-41" style="edgeStyle=orthogonalEdgeStyle;rounded=0;orthogonalLoop=1;jettySize=auto;html=1;entryX=1;entryY=0.5;entryDx=0;entryDy=0;" edge="1" parent="1" source="hmxcP7MvceyvJAKSfmU0-5" target="hmxcP7MvceyvJAKSfmU0-30">
          <mxGeometry relative="1" as="geometry" />
        </mxCell>
        <mxCell id="hmxcP7MvceyvJAKSfmU0-42" style="edgeStyle=orthogonalEdgeStyle;rounded=0;orthogonalLoop=1;jettySize=auto;html=1;entryX=1;entryY=0.5;entryDx=0;entryDy=0;" edge="1" parent="1" source="hmxcP7MvceyvJAKSfmU0-5" target="hmxcP7MvceyvJAKSfmU0-31">
          <mxGeometry relative="1" as="geometry" />
        </mxCell>
        <mxCell id="hmxcP7MvceyvJAKSfmU0-43" style="edgeStyle=orthogonalEdgeStyle;rounded=0;orthogonalLoop=1;jettySize=auto;html=1;entryX=1;entryY=0.5;entryDx=0;entryDy=0;" edge="1" parent="1" source="hmxcP7MvceyvJAKSfmU0-5" target="hmxcP7MvceyvJAKSfmU0-32">
          <mxGeometry relative="1" as="geometry" />
        </mxCell>
        <mxCell id="hmxcP7MvceyvJAKSfmU0-44" style="edgeStyle=orthogonalEdgeStyle;rounded=0;orthogonalLoop=1;jettySize=auto;html=1;entryX=1;entryY=0.5;entryDx=0;entryDy=0;" edge="1" parent="1" source="hmxcP7MvceyvJAKSfmU0-5" target="hmxcP7MvceyvJAKSfmU0-33">
          <mxGeometry relative="1" as="geometry" />
        </mxCell>
        <mxCell id="hmxcP7MvceyvJAKSfmU0-45" style="edgeStyle=orthogonalEdgeStyle;rounded=0;orthogonalLoop=1;jettySize=auto;html=1;entryX=1;entryY=0.5;entryDx=0;entryDy=0;" edge="1" parent="1" source="hmxcP7MvceyvJAKSfmU0-5" target="hmxcP7MvceyvJAKSfmU0-34">
          <mxGeometry relative="1" as="geometry" />
        </mxCell>
        <mxCell id="hmxcP7MvceyvJAKSfmU0-46" style="edgeStyle=orthogonalEdgeStyle;rounded=0;orthogonalLoop=1;jettySize=auto;html=1;entryX=1;entryY=0.5;entryDx=0;entryDy=0;" edge="1" parent="1" source="hmxcP7MvceyvJAKSfmU0-5" target="hmxcP7MvceyvJAKSfmU0-35">
          <mxGeometry relative="1" as="geometry" />
        </mxCell>
        <mxCell id="hmxcP7MvceyvJAKSfmU0-47" style="edgeStyle=orthogonalEdgeStyle;rounded=0;orthogonalLoop=1;jettySize=auto;html=1;entryX=1;entryY=0.5;entryDx=0;entryDy=0;" edge="1" parent="1" source="hmxcP7MvceyvJAKSfmU0-5" target="hmxcP7MvceyvJAKSfmU0-36">
          <mxGeometry relative="1" as="geometry" />
        </mxCell>
        <mxCell id="hmxcP7MvceyvJAKSfmU0-51" style="edgeStyle=orthogonalEdgeStyle;rounded=0;orthogonalLoop=1;jettySize=auto;html=1;entryX=0;entryY=0.5;entryDx=0;entryDy=0;" edge="1" parent="1" source="hmxcP7MvceyvJAKSfmU0-5" target="hmxcP7MvceyvJAKSfmU0-49">
          <mxGeometry relative="1" as="geometry" />
        </mxCell>
        <mxCell id="hmxcP7MvceyvJAKSfmU0-5" value="&lt;font style=&quot;font-size: 18px;&quot;&gt;carreras&lt;/font&gt;" style="rounded=0;whiteSpace=wrap;html=1;fontFamily=Helvetica;fontStyle=1" vertex="1" parent="1">
          <mxGeometry x="260" y="310" width="110" height="50" as="geometry" />
        </mxCell>
        <mxCell id="hmxcP7MvceyvJAKSfmU0-14" value="&lt;i&gt;&lt;font style=&quot;font-size: 12px;&quot;&gt;&lt;u style=&quot;&quot;&gt;&lt;b&gt;carrera_id&lt;/b&gt;&lt;/u&gt;&lt;/font&gt;&lt;/i&gt;" style="ellipse;whiteSpace=wrap;html=1;" vertex="1" parent="1">
          <mxGeometry x="60" y="60" width="110" height="50" as="geometry" />
        </mxCell>
        <mxCell id="hmxcP7MvceyvJAKSfmU0-28" value="&lt;font style=&quot;font-size: 12px;&quot;&gt;tipo_carrera&lt;/font&gt;" style="ellipse;whiteSpace=wrap;html=1;" vertex="1" parent="1">
          <mxGeometry x="60" y="120" width="110" height="50" as="geometry" />
        </mxCell>
        <mxCell id="hmxcP7MvceyvJAKSfmU0-29" value="&lt;font style=&quot;font-size: 12px;&quot;&gt;distancia&lt;/font&gt;" style="ellipse;whiteSpace=wrap;html=1;" vertex="1" parent="1">
          <mxGeometry x="60" y="180" width="110" height="50" as="geometry" />
        </mxCell>
        <mxCell id="hmxcP7MvceyvJAKSfmU0-30" value="&lt;font style=&quot;font-size: 12px;&quot;&gt;fecha&lt;/font&gt;" style="ellipse;whiteSpace=wrap;html=1;" vertex="1" parent="1">
          <mxGeometry x="60" y="240" width="110" height="50" as="geometry" />
        </mxCell>
        <mxCell id="hmxcP7MvceyvJAKSfmU0-31" value="&lt;font style=&quot;font-size: 12px;&quot;&gt;tiempo&lt;/font&gt;" style="ellipse;whiteSpace=wrap;html=1;" vertex="1" parent="1">
          <mxGeometry x="60" y="300" width="110" height="50" as="geometry" />
        </mxCell>
        <mxCell id="hmxcP7MvceyvJAKSfmU0-32" value="&lt;font style=&quot;font-size: 12px;&quot;&gt;mejor_tiempo&lt;/font&gt;" style="ellipse;whiteSpace=wrap;html=1;" vertex="1" parent="1">
          <mxGeometry x="60" y="360" width="110" height="50" as="geometry" />
        </mxCell>
        <mxCell id="hmxcP7MvceyvJAKSfmU0-33" value="&lt;font style=&quot;font-size: 12px;&quot;&gt;altitud&lt;/font&gt;" style="ellipse;whiteSpace=wrap;html=1;" vertex="1" parent="1">
          <mxGeometry x="60" y="420" width="110" height="50" as="geometry" />
        </mxCell>
        <mxCell id="hmxcP7MvceyvJAKSfmU0-34" value="&lt;font style=&quot;font-size: 12px;&quot;&gt;lugar&lt;/font&gt;" style="ellipse;whiteSpace=wrap;html=1;" vertex="1" parent="1">
          <mxGeometry x="60" y="480" width="110" height="50" as="geometry" />
        </mxCell>
        <mxCell id="hmxcP7MvceyvJAKSfmU0-35" value="&lt;font style=&quot;font-size: 12px;&quot;&gt;pais&lt;/font&gt;" style="ellipse;whiteSpace=wrap;html=1;" vertex="1" parent="1">
          <mxGeometry x="60" y="540" width="110" height="50" as="geometry" />
        </mxCell>
        <mxCell id="hmxcP7MvceyvJAKSfmU0-36" value="foto" style="ellipse;whiteSpace=wrap;html=1;" vertex="1" parent="1">
          <mxGeometry x="60" y="600" width="110" height="50" as="geometry" />
        </mxCell>
        <mxCell id="hmxcP7MvceyvJAKSfmU0-52" style="edgeStyle=orthogonalEdgeStyle;rounded=0;orthogonalLoop=1;jettySize=auto;html=1;entryX=1;entryY=0.5;entryDx=0;entryDy=0;" edge="1" parent="1" source="hmxcP7MvceyvJAKSfmU0-48" target="hmxcP7MvceyvJAKSfmU0-49">
          <mxGeometry relative="1" as="geometry" />
        </mxCell>
        <mxCell id="hmxcP7MvceyvJAKSfmU0-48" value="&lt;font style=&quot;font-size: 18px;&quot;&gt;tipos_carreras&lt;/font&gt;" style="rounded=0;whiteSpace=wrap;html=1;fontFamily=Helvetica;fontStyle=1" vertex="1" parent="1">
          <mxGeometry x="570" y="310" width="150" height="50" as="geometry" />
        </mxCell>
        <mxCell id="hmxcP7MvceyvJAKSfmU0-49" value="pertenece" style="rhombus;whiteSpace=wrap;html=1;" vertex="1" parent="1">
          <mxGeometry x="430" y="295" width="80" height="80" as="geometry" />
        </mxCell>
      </root>
    </mxGraphModel>
  </diagram>
</mxfile>
